<svg id="Layer_1" data-name="Layer 1" xmlns="http://www.w3.org/2000/svg" viewBox="0 0 512 512"><defs><style>.cls-1{fill:#41444b;}.cls-2{fill:#fddb3a;}.cls-3{fill:#fff;}.cls-4{fill:#f6f4e6;}</style></defs><rect class="cls-1" width="512" height="512"/><rect class="cls-2" x="136.75" y="96.24" width="255.05" height="143.52"/><path class="cls-3" d="M278.16,126.36l-24.05,83.75H233.05l-13.28-46.54-13.4,46.54H185.31l-24.17-83.75h21.3l13.4,46.54,13.4-46.54,20.1-.48,14.24,47L257,126.36Z"/><path class="cls-3" d="M367.42,152a26,26,0,0,1-26,26h-27.4v31.83H293.71V126.18h47.74A26,26,0,0,1,367.42,152ZM347,152a5.56,5.56,0,0,0-5.5-5.5h-27.4v11.13h27.4A5.6,5.6,0,0,0,347,152Z"/><path class="cls-4" d="M100.33,315.19l.58,1.34c2.48,4.4,6.88,5.93,11.27,7.46,10.13,3.25,20.84,5.54,30.78,9.75a69.49,69.49,0,0,1,11.66,6.3,38.55,38.55,0,0,1,12.61,14c5.35,10.32,5,23.12-.38,33.64C161.69,398,152.13,406,141.43,410.57s-22.75,5.74-34.22,5c-18.92-1.33-37.65-8.21-51.41-21.21L82,370.05a52.64,52.64,0,0,0,38,15.29c7.64-.19,16.82-3.63,15.48-12.61a8.74,8.74,0,0,0-.57-1.72c-2.68-5.93-8.22-8.22-13.57-9.94-8.41-2.87-17.21-4.59-25.62-7.46S79.12,346.73,73.19,340a36.57,36.57,0,0,1-9.56-25,38.12,38.12,0,0,1,10.13-25c6.69-7.64,16.25-12.23,26.19-14.9a80.69,80.69,0,0,1,37.65-1.15A82.06,82.06,0,0,1,173,290.15l-10.9,10.52c-4.78,4.78-9.94,9.55-14.91,14.33a38.2,38.2,0,0,0-36.89-11.66C104.73,304.68,98.42,308.5,100.33,315.19Z"/><path class="cls-4" d="M319.37,318.48A41.56,41.56,0,0,1,277.9,360H234.12V410.8H201.63V277.19H277.9A41.52,41.52,0,0,1,319.37,318.48Zm-32.68,0a8.89,8.89,0,0,0-8.79-8.79H234.12v17.77H277.9A8.93,8.93,0,0,0,286.69,318.48Z"/><path class="cls-4" d="M420.58,344.19l52.18,67.09h-41.1l-31.73-40.71L368.4,411.28H326.54l52.75-67.09-52.75-66.71,41.28-.76,32.11,41.09,32.12-41.09,40.71.76Z"/></svg>