<svg id="Layer_1" data-name="Layer 1" xmlns="http://www.w3.org/2000/svg" viewBox="0 0 535.51 406.48"><defs><style>.cls-1,.cls-2,.cls-3{fill:#00b4cc;}.cls-1{opacity:0.5;}.cls-1,.cls-2{isolation:isolate;}.cls-2{opacity:0.75;}</style></defs><path class="cls-1" d="M0,198,115.75,5.27c1.1-2.32,5-5.22,8.81-5.22h80.5c9.38,0,14.34,8.71,9.38,16.26L102.55,198,218.33,390.27c4.95,8.13,0,16.26-8.83,16.26H132.86c-3.3,0-7.71-2.32-9.37-5.22L.28,198" transform="translate(0 -0.05)"/><path class="cls-2" d="M157.6,198,273.39,5.27C274.49,3,278.34.05,282.2.05h80.49c9.38,0,14.34,8.71,9.38,16.26L260.15,198,375.93,390.27c5,8.13,0,16.26-8.82,16.26H290.47c-3.3,0-7.72-2.32-9.37-5.22L157.89,198" transform="translate(0 -0.05)"/><path class="cls-3" d="M315.21,198,431,5.27C432.09,3,436,.05,439.8.05h80.5c9.38,0,14.33,8.71,9.38,16.26L417.75,198,533.53,390.27c5,8.13,0,16.26-8.82,16.26H448.07c-3.3,0-7.71-2.32-9.37-5.22L315.49,198" transform="translate(0 -0.05)"/></svg>