<?xml version="1.0" encoding="utf-8"?>
<!-- Generator: Adobe Illustrator 24.1.2, SVG Export Plug-In . SVG Version: 6.00 Build 0)  -->
<svg version="1.1" id="Layer_1" xmlns="http://www.w3.org/2000/svg" xmlns:xlink="http://www.w3.org/1999/xlink" x="0px" y="0px"
	 viewBox="0 0 535.5 406.5" style="enable-background:new 0 0 535.5 406.5;" xml:space="preserve">
<style type="text/css">
	.st0{opacity:0.5;fill:#FFFFFF;enable-background:new    ;}
	.st1{opacity:0.75;fill:#FFFFFF;enable-background:new    ;}
	.st2{fill:#FFFFFF;}
</style>
<path class="st0" d="M0,198L115.8,5.3c1.1-2.3,5-5.2,8.8-5.2h80.5c9.4,0,14.3,8.7,9.4,16.3L102.6,198l115.8,192.2
	c4.9,8.1,0,16.3-8.8,16.3h-76.6c-3.3,0-7.7-2.3-9.4-5.2L0.3,198"/>
<path class="st1" d="M157.6,198L273.4,5.3c1.1-2.3,5-5.2,8.8-5.2h80.5c9.4,0,14.3,8.7,9.4,16.3L260.1,198l115.8,192.2
	c5,8.1,0,16.3-8.8,16.3h-76.6c-3.3,0-7.7-2.3-9.4-5.2L157.9,198"/>
<path class="st2" d="M315.2,198L431,5.3c1.1-2.3,5-5.2,8.8-5.2h80.5c9.4,0,14.3,8.7,9.4,16.3L417.8,198l115.8,192.2
	c5,8.1,0,16.3-8.8,16.3h-76.6c-3.3,0-7.7-2.3-9.4-5.2L315.5,198"/>
</svg>
