<svg xmlns="http://www.w3.org/2000/svg" viewBox="0 0 187.1 34.3"><path d="M12.3 33.4c-.1-.3-.3-.5-.4-.8s-.3-.5-.4-.8L.1 1.8v-.4C.1 1 .4.8.9.8H8c.6 0 1 .3 1.2.8L16 21.9l6.3-20.3c.2-.6.6-.8 1.2-.8h7.3c.3 0 .6.1.7.2s.2.3.2.5v.3l-4 11.4 3 8.8L38 1.6c.2-.6.6-.8 1.2-.8h7c.3 0 .6.1.7.2s.2.3.2.5v.3L44 9.6l-6.4 15.6-3.1 7.8c-.1.2-.2.3-.4.5s-.5.3-.8.3H28c-.3 0-.6-.1-.7-.2-.2-.1-.3-.3-.4-.5l-3.5-9.3-3 8c-.1.2-.2.4-.3.7l-.3.6c-.1.2-.3.4-.5.5s-.4.2-.6.2h-5.5c-.4.1-.7-.1-.9-.4zM50 1.7c0-.3.1-.6.2-.7.2-.2.4-.3.7-.3h14.3c1 0 2 .1 2.9.4s1.7.7 2.5 1.2 1.4 1.1 2.1 1.8c.6.7 1.1 1.4 1.6 2.2.4.8.7 1.6 1 2.5.2.9.3 1.8.3 2.7 0 1.3-.2 2.6-.7 3.9s-1.2 2.4-2.1 3.4-2 1.8-3.2 2.4-2.6.9-4.2.9h-6.8v10.6c0 .6-.3 1-1 1H51c-.3 0-.5-.1-.7-.2-.2-.2-.3-.4-.3-.7V1.7zm16.8 9.8c0-.4-.1-.9-.2-1.3s-.4-.9-.7-1.2-.7-.6-1.1-.9c-.4-.2-.9-.3-1.4-.3h-4.7v7.5h4.7c.5 0 1-.1 1.5-.3a4.44 4.44 0 0 0 1.1-.8c.3-.3.5-.7.7-1.2s.1-1 .1-1.5zm16.1 11.6c.3.2.6.5 1 .8s.8.7 1.4 1c.8.5 1.5.9 2.3 1.2.7.3 1.5.4 2.3.4s1.4-.1 1.9-.3.9-.4 1.2-.7.5-.6.6-1 .2-.8.2-1.2c0-.5-.2-.9-.5-1.2s-.8-.7-1.3-1-1-.5-1.6-.7l-1.4-.5c-1.8-.6-3.3-1.3-4.7-2-1.3-.7-2.5-1.5-3.3-2.4-.9-.9-1.6-1.9-2-2.9-.4-1.1-.7-2.2-.7-3.6s.3-2.6.8-3.8c.6-1.1 1.4-2.1 2.4-2.9S83.8.9 85.2.4c1.5-.2 3.1-.4 4.9-.4a16 16 0 0 1 3.9.5c1.2.3 2.5.8 3.7 1.5l1.4.9c.5.3.9.6 1.2.9l.8.8a1.08 1.08 0 0 1 .3.7c0 .2 0 .4-.1.5-.1.2-.2.3-.4.6L97.5 10c-.3.3-.5.4-.8.4-.2 0-.4-.1-.6-.2s-.4-.3-.6-.4l-.2-.2c-.3-.3-.6-.5-1-.8s-.8-.5-1.2-.7-.9-.4-1.3-.5c-.5-.1-.9-.2-1.4-.2s-1 0-1.4.1-.8.2-1.1.4-.6.4-.8.7-.3.6-.3 1.1.1.8.3 1.1a2.36 2.36 0 0 0 .9.8c.4.2.9.5 1.6.7.6.2 1.3.5 2.2.7l4.4 1.6c1.3.6 2.5 1.2 3.4 2s1.7 1.7 2.3 2.8c.5 1.1.8 2.4.8 4s-.3 3.1-1 4.5c-.7 1.3-1.6 2.5-2.8 3.4s-2.5 1.7-4.1 2.2-3.3.8-5.1.8a14.26 14.26 0 0 1-5-.9c-1.7-.6-3.2-1.4-4.6-2.5-.6-.4-1.1-.9-1.5-1.3s-.7-.8-1-1l-.1-.1v-.2c0-.1 0 0 0 0-.3-.4-.5-.7-.5-.9 0-.3.2-.5.5-.9l3.9-3.7c.3-.2.6-.3.8-.3.1 0 .3 0 .4.1a.55.55 0 0 0 .3.5zm23.4-21.4c0-.3.1-.6.2-.7.2-.2.4-.3.7-.3h14.3c1 0 2 .1 2.9.4s1.7.7 2.5 1.2 1.4 1.1 2.1 1.8c.6.7 1.1 1.4 1.6 2.2.4.8.7 1.6 1 2.5.2.9.3 1.8.3 2.7 0 1.3-.2 2.6-.7 3.9s-1.2 2.4-2.1 3.4-2 1.8-3.2 2.4-2.6.9-4.2.9h-6.8v10.6c0 .6-.3 1-1 1h-6.6c-.3 0-.5-.1-.7-.2-.2-.2-.3-.4-.3-.7V1.7zm16.8 9.8c0-.4-.1-.9-.2-1.3s-.4-.8-.7-1.2c-.3-.3-.7-.6-1.1-.9-.4-.2-.9-.3-1.4-.3H115v7.5h4.7c.5 0 1-.1 1.5-.3a4.44 4.44 0 0 0 1.1-.8c.3-.3.5-.7.7-1.2s.1-1 .1-1.5z"/><g opacity=".7"><path d="M162.3.7h-7.9c-.2 0-.4.1-.5.2l-21.3 32c-.2.4 0 .9.5.9h7.9c.2 0 .4-.1.5-.2l21.3-32c.2-.4 0-.9-.5-.9z"/><path d="M141.2.7h-7.9c-.4 0-.7.5-.5.9l21.2 32c.1.2.3.2.5.2h7.9c.4 0 .7-.5.5-.9L141.7 1a.55.55 0 0 0-.5-.3z"/></g><path d="M174.6 33.9h-7.9c-.2 0-.4-.1-.5-.2l-6.3-9.5-4.6-7 4.6-7L166 1c.1-.2.3-.2.5-.2h7.9c.4 0 .7.5.5.9l-10.4 15.6L175.1 33c.2.4 0 .9-.5.9z" opacity=".4"/><path d="M186.5 33.9h-7.9c-.2 0-.4-.1-.5-.2l-6.3-9.5-4.6-7 4.6-7 6.1-9.2c.1-.2.3-.2.5-.2h7.9c.4 0 .7.5.5.9l-10.4 15.6L187 33c.2.4 0 .9-.5.9z" opacity=".25"/></svg>