<svg id="Layer_1" data-name="Layer 1" xmlns="http://www.w3.org/2000/svg" viewBox="0 0 697.67 143.53"><defs><style>.cls-1{fill:#fddb3a;}.cls-2{fill:#fff;}.cls-3{fill:#41444b;}</style></defs><rect class="cls-1" y="0.01" width="255.05" height="143.52"/><path class="cls-2" d="M475.65,342.9l-24,83.76H430.54l-13.28-46.55-13.4,46.55H382.8L358.63,342.9h21.3l13.4,46.55,13.4-46.55,20.1-.48,14.24,47,13.4-46.55Z" transform="translate(-334.24 -312.78)"/><path class="cls-2" d="M564.9,368.57a26,26,0,0,1-26,26h-27.4v31.83H491.2V342.72h47.74A26,26,0,0,1,564.9,368.57Zm-20.46,0a5.57,5.57,0,0,0-5.5-5.51h-27.4v11.13h27.4A5.59,5.59,0,0,0,544.44,368.57Z" transform="translate(-334.24 -312.78)"/><path class="cls-3" d="M659.49,355.74l.57,1.34c2.49,4.39,6.88,5.92,11.28,7.45,10.13,3.25,20.83,5.54,30.77,9.75a68.44,68.44,0,0,1,11.66,6.31,38.55,38.55,0,0,1,12.62,14c5.35,10.32,5,23.13-.39,33.64-5.16,10.32-14.71,18.35-25.42,22.94s-22.74,5.73-34.21,5c-18.93-1.34-37.66-8.22-51.42-21.22l26.19-24.27a52.66,52.66,0,0,0,38,15.29c7.65-.19,16.83-3.63,15.49-12.62a8.87,8.87,0,0,0-.58-1.72c-2.67-5.92-8.22-8.22-13.57-9.94-8.41-2.86-17.2-4.58-25.61-7.45s-16.63-6.88-22.55-13.57a36.59,36.59,0,0,1-9.56-25,38,38,0,0,1,10.13-25c6.69-7.65,16.25-12.23,26.18-14.91a81,81,0,0,1,37.66-1.15,82,82,0,0,1,35.36,16.25l-10.89,10.51c-4.78,4.78-9.94,9.56-14.91,14.34a38.21,38.21,0,0,0-36.89-11.66C663.88,345.23,657.58,349.05,659.49,355.74Z" transform="translate(-334.24 -312.78)"/><path class="cls-3" d="M878.53,359a41.56,41.56,0,0,1-41.48,41.48H793.28v50.85H760.79V317.74h76.26A41.52,41.52,0,0,1,878.53,359Zm-32.69,0a8.89,8.89,0,0,0-8.79-8.79H793.28V368h43.77A8.94,8.94,0,0,0,845.84,359Z" transform="translate(-334.24 -312.78)"/><path class="cls-3" d="M979.73,384.73l52.18,67.09H990.82l-31.73-40.71-31.54,40.71H885.69l52.76-67.09L885.69,318l41.29-.76,32.11,41.09,32.11-41.09,40.71.76Z" transform="translate(-334.24 -312.78)"/></svg>