<svg version="1.1" xmlns="http://www.w3.org/2000/svg" xmlns:xlink="http://www.w3.org/1999/xlink" x="0px" y="0px"
	 viewBox="0 0 187.1 34.3" style="enable-background:new 0 0 187.1 34.3;" xml:space="preserve">
<style type="text/css">
	.st0{opacity:0.7;}
	.st1{opacity:0.4;}
	.st2{opacity:0.25;}
</style>
<g>
	<path d="M12.3,33.4c-0.1-0.3-0.3-0.5-0.4-0.8c-0.1-0.3-0.3-0.5-0.4-0.8c-1.9-5.1-3.8-10.1-5.7-15c-1.9-5-3.8-10-5.7-15
		c0-0.1,0-0.1,0-0.2s0-0.1,0-0.2c0-0.4,0.3-0.6,0.8-0.6H8c0.6,0,1,0.3,1.2,0.8L16,21.9l6.3-20.3c0.2-0.6,0.6-0.8,1.2-0.8h7.3
		c0.3,0,0.6,0.1,0.7,0.2c0.1,0.1,0.2,0.3,0.2,0.5c0,0.1,0,0.2,0,0.2v0.1l-4,11.4l3,8.8L38,1.6c0.2-0.6,0.6-0.8,1.2-0.8h7
		c0.3,0,0.6,0.1,0.7,0.2c0.1,0.1,0.2,0.3,0.2,0.5c0,0.1,0,0.2,0,0.2v0.1c-1,2.6-2,5.2-3.1,7.8c-1.1,2.6-2.1,5.2-3.2,7.8
		c-1.1,2.6-2.1,5.2-3.2,7.8c-1,2.6-2.1,5.2-3.1,7.8c-0.1,0.2-0.2,0.3-0.4,0.5c-0.2,0.2-0.5,0.3-0.8,0.3h-0.1H28
		c-0.3,0-0.6-0.1-0.7-0.2c-0.2-0.1-0.3-0.3-0.4-0.5l-3.5-9.3c-0.5,1.4-1,2.7-1.5,4c-0.5,1.3-1,2.6-1.5,4c-0.1,0.2-0.2,0.4-0.3,0.7
		c-0.1,0.2-0.2,0.4-0.3,0.6s-0.3,0.4-0.5,0.5c-0.2,0.1-0.4,0.2-0.6,0.2h-0.1h-5.4C12.8,33.9,12.5,33.7,12.3,33.4z"/>
	<path d="M50,1.7c0-0.3,0.1-0.6,0.2-0.7c0.2-0.2,0.4-0.3,0.7-0.3h14.3c1,0,2,0.1,2.9,0.4c0.9,0.3,1.7,0.7,2.5,1.2
		c0.8,0.5,1.4,1.1,2.1,1.8c0.6,0.7,1.1,1.4,1.6,2.2c0.4,0.8,0.7,1.6,1,2.5c0.2,0.9,0.3,1.8,0.3,2.7c0,1.3-0.2,2.6-0.7,3.9
		c-0.5,1.3-1.2,2.4-2.1,3.4c-0.9,1-2,1.8-3.2,2.4c-1.2,0.6-2.6,0.9-4.2,0.9h-6.8v10.6c0,0.6-0.3,1-1,1H51c-0.3,0-0.5-0.1-0.7-0.2
		c-0.2-0.2-0.3-0.4-0.3-0.7V1.7z M66.8,11.5c0-0.4-0.1-0.9-0.2-1.3S66.2,9.3,65.9,9c-0.3-0.3-0.7-0.6-1.1-0.9
		c-0.4-0.2-0.9-0.3-1.4-0.3h-4.7v7.5h4.7c0.5,0,1-0.1,1.5-0.3c0.4-0.2,0.8-0.5,1.1-0.8c0.3-0.3,0.5-0.7,0.7-1.2S66.8,12,66.8,11.5z"
		/>
	<path d="M82.9,23.1c0.3,0.2,0.6,0.5,1,0.8c0.4,0.3,0.8,0.7,1.4,1c0.8,0.5,1.5,0.9,2.3,1.2c0.7,0.3,1.5,0.4,2.3,0.4
		c0.8,0,1.4-0.1,1.9-0.3c0.5-0.2,0.9-0.4,1.2-0.7c0.3-0.3,0.5-0.6,0.6-1c0.1-0.4,0.2-0.8,0.2-1.2c0-0.5-0.2-0.9-0.5-1.2
		s-0.8-0.7-1.3-1c-0.5-0.3-1-0.5-1.6-0.7c-0.6-0.2-1-0.4-1.4-0.5c-1.8-0.6-3.3-1.3-4.7-2c-1.3-0.7-2.5-1.5-3.3-2.4
		c-0.9-0.9-1.6-1.9-2-2.9c-0.4-1.1-0.7-2.2-0.7-3.6c0-1.4,0.3-2.6,0.8-3.8c0.6-1.1,1.4-2.1,2.4-2.9c1-0.8,2.3-1.4,3.7-1.9
		C86.7,0.2,88.3,0,90.1,0c1.4,0,2.7,0.2,3.9,0.5c1.2,0.3,2.5,0.8,3.7,1.5c0.5,0.3,1,0.6,1.4,0.9c0.5,0.3,0.9,0.6,1.2,0.9
		s0.6,0.6,0.8,0.8s0.3,0.5,0.3,0.7s0,0.4-0.1,0.5c-0.1,0.2-0.2,0.3-0.4,0.6L97.5,10c-0.3,0.3-0.5,0.4-0.8,0.4
		c-0.2,0-0.4-0.1-0.6-0.2c-0.2-0.1-0.4-0.3-0.6-0.4l-0.2-0.2c-0.3-0.3-0.6-0.5-1-0.8s-0.8-0.5-1.2-0.7s-0.9-0.4-1.3-0.5
		c-0.5-0.1-0.9-0.2-1.4-0.2c-0.5,0-1,0-1.4,0.1c-0.4,0.1-0.8,0.2-1.1,0.4c-0.3,0.2-0.6,0.4-0.8,0.7c-0.2,0.3-0.3,0.6-0.3,1.1
		s0.1,0.8,0.3,1.1c0.2,0.3,0.5,0.6,0.9,0.8s0.9,0.5,1.6,0.7c0.6,0.2,1.3,0.5,2.2,0.7c1.6,0.5,3,1.1,4.4,1.6c1.3,0.6,2.5,1.2,3.4,2
		s1.7,1.7,2.3,2.8c0.5,1.1,0.8,2.4,0.8,4c0,1.6-0.3,3.1-1,4.5c-0.7,1.3-1.6,2.5-2.8,3.4c-1.2,0.9-2.5,1.7-4.1,2.2
		c-1.6,0.5-3.3,0.8-5.1,0.8c-1.7,0-3.4-0.3-5-0.9c-1.7-0.6-3.2-1.4-4.6-2.5c-0.6-0.4-1.1-0.9-1.5-1.3s-0.7-0.8-1-1l-0.1-0.1
		c0,0,0,0,0-0.1c0,0,0,0,0,0c0,0,0,0,0-0.1s0,0,0,0c-0.3-0.4-0.5-0.7-0.5-0.9c0-0.3,0.2-0.5,0.5-0.9l3.9-3.7
		c0.3-0.2,0.6-0.3,0.8-0.3c0.1,0,0.3,0,0.4,0.1C82.6,22.8,82.7,23,82.9,23.1z"/>
	<path d="M106.3,1.7c0-0.3,0.1-0.6,0.2-0.7c0.2-0.2,0.4-0.3,0.7-0.3h14.3c1,0,2,0.1,2.9,0.4c0.9,0.3,1.7,0.7,2.5,1.2
		c0.8,0.5,1.4,1.1,2.1,1.8c0.6,0.7,1.1,1.4,1.6,2.2c0.4,0.8,0.7,1.6,1,2.5c0.2,0.9,0.3,1.8,0.3,2.7c0,1.3-0.2,2.6-0.7,3.9
		c-0.5,1.3-1.2,2.4-2.1,3.4c-0.9,1-2,1.8-3.2,2.4c-1.2,0.6-2.6,0.9-4.2,0.9h-6.8v10.6c0,0.6-0.3,1-1,1h-6.6c-0.3,0-0.5-0.1-0.7-0.2
		c-0.2-0.2-0.3-0.4-0.3-0.7V1.7z M123.1,11.5c0-0.4-0.1-0.9-0.2-1.3s-0.4-0.8-0.7-1.2c-0.3-0.3-0.7-0.6-1.1-0.9
		c-0.4-0.2-0.9-0.3-1.4-0.3h-4.7v7.5h4.7c0.5,0,1-0.1,1.5-0.3c0.4-0.2,0.8-0.5,1.1-0.8c0.3-0.3,0.5-0.7,0.7-1.2S123.1,12,123.1,11.5
		z"/>
	<g class="st0">
		<path d="M162.3,0.7h-7.9c-0.2,0-0.4,0.1-0.5,0.2l-21.3,32c-0.2,0.4,0,0.9,0.5,0.9h7.9c0.2,0,0.4-0.1,0.5-0.2l21.3-32
			C163,1.2,162.8,0.7,162.3,0.7z"/>
		<path d="M141.2,0.7h-7.9c-0.4,0-0.7,0.5-0.5,0.9l21.2,32c0.1,0.2,0.3,0.2,0.5,0.2h7.9c0.4,0,0.7-0.5,0.5-0.9L141.7,1
			C141.6,0.8,141.4,0.7,141.2,0.7z"/>
	</g>
	<path class="st1" d="M174.6,33.9h-7.9c-0.2,0-0.4-0.1-0.5-0.2l-6.3-9.5l-4.6-7l4.6-7l6.1-9.2c0.1-0.2,0.3-0.2,0.5-0.2h7.9
		c0.4,0,0.7,0.5,0.5,0.9l-10.4,15.6L175.1,33C175.3,33.4,175.1,33.9,174.6,33.9z"/>
	<path class="st2" d="M186.5,33.9h-7.9c-0.2,0-0.4-0.1-0.5-0.2l-6.3-9.5l-4.6-7l4.6-7l6.1-9.2c0.1-0.2,0.3-0.2,0.5-0.2h7.9
		c0.4,0,0.7,0.5,0.5,0.9l-10.4,15.6L187,33C187.2,33.4,187,33.9,186.5,33.9z"/>
</g>
</svg>
