<svg id="Layer_1" data-name="Layer 1" xmlns="http://www.w3.org/2000/svg" viewBox="0 0 195.75 34.18"><defs><style>.cls-1{fill:#343838;}.cls-2,.cls-3,.cls-4{fill:#00b4cc;}.cls-2{opacity:0.5;}.cls-3{opacity:0.75;}</style></defs><path class="cls-1" d="M1.67,1.67A.82.82,0,0,1,2.52.54H8.08a1,1,0,0,1,.85.66L13,17.29h.19L20.56.58a.91.91,0,0,1,.81-.52h.85A.82.82,0,0,1,23,.58l7.36,16.71h.19L34.66,1.2a1,1,0,0,1,.85-.66h5.56a.82.82,0,0,1,.85,1.13l-9,31.9a.91.91,0,0,1-.85.67h-.76a1,1,0,0,1-.81-.52L21.84,14.3H21.7L13.06,33.72a1,1,0,0,1-.81.52h-.76a.91.91,0,0,1-.85-.67Z" transform="translate(-1.62 -0.06)"/><path class="cls-1" d="M47,1.44a.9.9,0,0,1,.9-.9H59.34A10.62,10.62,0,0,1,70,11,10.69,10.69,0,0,1,59.39,21.71h-5V32.86a.93.93,0,0,1-.91.9H47.9a.9.9,0,0,1-.9-.9ZM58.92,14.78A3.73,3.73,0,0,0,62.67,11a3.62,3.62,0,0,0-3.75-3.52H54.41v7.27Z" transform="translate(-1.62 -0.06)"/><path class="cls-1" d="M73.06,29.25l2.23-3.94A1.23,1.23,0,0,1,76.91,25c.19.09,3.6,2.61,6.74,2.61a3,3,0,0,0,3.27-2.85c0-2-1.66-3.51-4.89-4.79C78,18.38,72.82,15.2,72.82,9.51c0-4.7,3.66-9.45,11-9.45A17.7,17.7,0,0,1,94,3.62a1.2,1.2,0,0,1,.28,1.52L91.81,8.8c-.33.52-1.19.94-1.61.61s-3.9-2.85-6.79-2.85a2.75,2.75,0,0,0-3,2.43c0,1.75,1.42,3.08,5.17,4.6S95.18,18,95.18,24.41c0,4.89-4.22,9.83-11.2,9.83-6.17,0-9.59-2.56-10.68-3.66C72.82,30.11,72.68,29.92,73.06,29.25Z" transform="translate(-1.62 -0.06)"/><path class="cls-1" d="M101,1.44a.9.9,0,0,1,.9-.9h11.44A10.62,10.62,0,0,1,124,11a10.69,10.69,0,0,1-10.59,10.68h-5V32.86a.93.93,0,0,1-.9.9h-5.61a.9.9,0,0,1-.9-.9Zm11.92,13.34A3.73,3.73,0,0,0,116.64,11a3.62,3.62,0,0,0-3.75-3.52h-4.51v7.27Z" transform="translate(-1.62 -0.06)"/><path class="cls-1" d="M135.63,16.72,126,1.86a.85.85,0,0,1,.8-1.32h6.93a1,1,0,0,1,.76.42L140,9.79h0L145.59,1a1,1,0,0,1,.76-.42h6.93c.81,0,1.24.71.81,1.32l-9.64,14.86,10,15.72a.82.82,0,0,1-.76,1.32h-6.6a1.06,1.06,0,0,1-.8-.42L140,23.75h-.1l-6.07,9.59a1,1,0,0,1-.81.42h-6.6c-.8,0-1.23-.71-.8-1.32Z" transform="translate(-1.62 -0.06)"/><path class="cls-2" d="M150.4,16.72,160.37,1a1,1,0,0,1,.76-.42h6.93c.81,0,1.24.71.81,1.32l-9.64,14.86,10,15.72a.82.82,0,0,1-.76,1.32h-6.6a1.06,1.06,0,0,1-.8-.42L150.43,16.72" transform="translate(-1.62 -0.06)"/><path class="cls-3" d="M164.4,16.72,174.37,1a1,1,0,0,1,.76-.42h6.93c.81,0,1.24.71.81,1.32l-9.64,14.86,10,15.72a.82.82,0,0,1-.76,1.32h-6.6a1.06,1.06,0,0,1-.8-.42L164.43,16.72" transform="translate(-1.62 -0.06)"/><path class="cls-4" d="M178.4,16.72,188.37,1a1,1,0,0,1,.76-.42h6.93c.81,0,1.24.71.81,1.32l-9.64,14.86,10,15.72a.82.82,0,0,1-.76,1.32h-6.6a1.06,1.06,0,0,1-.8-.42L178.43,16.72" transform="translate(-1.62 -0.06)"/></svg>